<?xml version="1.0" encoding="utf-8" standalone="no"?>
<!DOCTYPE svg PUBLIC "-//W3C//DTD SVG 1.1//EN"
  "http://www.w3.org/Graphics/SVG/1.1/DTD/svg11.dtd">
<svg xmlns:xlink="http://www.w3.org/1999/xlink" width="432pt" height="72pt" viewBox="0 0 432 72" xmlns="http://www.w3.org/2000/svg" version="1.1">
 <metadata>
  <rdf:RDF xmlns:dc="http://purl.org/dc/elements/1.1/" xmlns:cc="http://creativecommons.org/ns#" xmlns:rdf="http://www.w3.org/1999/02/22-rdf-syntax-ns#">
   <cc:Work>
    <dc:type rdf:resource="http://purl.org/dc/dcmitype/StillImage"/>
    <dc:date>2025-05-02T03:15:49.001809</dc:date>
    <dc:format>image/svg+xml</dc:format>
    <dc:creator>
     <cc:Agent>
      <dc:title>Matplotlib v3.10.0, https://matplotlib.org/</dc:title>
     </cc:Agent>
    </dc:creator>
   </cc:Work>
  </rdf:RDF>
 </metadata>
 <defs>
  <style type="text/css">*{stroke-linejoin: round; stroke-linecap: butt}</style>
 </defs>
 <g id="figure_1">
  <g id="patch_1">
   <path d="M 0 72 
L 432 72 
L 432 0 
L 0 0 
z
" style="fill: #ffffff"/>
  </g>
  <g id="axes_1">
   <g id="patch_2">
    <path d="M 18.63532 5.220477 
L 0.605093 23.250704 
L 0.605093 48.749296 
L 18.63532 66.779523 
L 44.133911 66.779523 
L 62.164138 48.749296 
L 62.164138 23.250704 
L 44.133911 5.220477 
z
" clip-path="url(#pe8e03c1a39)" style="fill: #4477aa; stroke: #4477aa; stroke-width: 0.1; stroke-linejoin: miter"/>
   </g>
   <g id="patch_3">
    <path d="M 80.173781 5.220477 
L 62.143554 23.250704 
L 62.143554 48.749296 
L 80.173781 66.779523 
L 105.672373 66.779523 
L 123.7026 48.749296 
L 123.7026 23.250704 
L 105.672373 5.220477 
z
" clip-path="url(#pe8e03c1a39)" style="fill: #ee6677; stroke: #ee6677; stroke-width: 0.1; stroke-linejoin: miter"/>
   </g>
   <g id="patch_4">
    <path d="M 141.712243 5.220477 
L 123.682016 23.250704 
L 123.682016 48.749296 
L 141.712243 66.779523 
L 167.210834 66.779523 
L 185.241061 48.749296 
L 185.241061 23.250704 
L 167.210834 5.220477 
z
" clip-path="url(#pe8e03c1a39)" style="fill: #228833; stroke: #228833; stroke-width: 0.1; stroke-linejoin: miter"/>
   </g>
   <g id="patch_5">
    <path d="M 203.250704 5.220477 
L 185.220477 23.250704 
L 185.220477 48.749296 
L 203.250704 66.779523 
L 228.749296 66.779523 
L 246.779523 48.749296 
L 246.779523 23.250704 
L 228.749296 5.220477 
z
" clip-path="url(#pe8e03c1a39)" style="fill: #ccbb44; stroke: #ccbb44; stroke-width: 0.1; stroke-linejoin: miter"/>
   </g>
   <g id="patch_6">
    <path d="M 264.789166 5.220477 
L 246.758939 23.250704 
L 246.758939 48.749296 
L 264.789166 66.779523 
L 290.287757 66.779523 
L 308.317984 48.749296 
L 308.317984 23.250704 
L 290.287757 5.220477 
z
" clip-path="url(#pe8e03c1a39)" style="fill: #66ccee; stroke: #66ccee; stroke-width: 0.1; stroke-linejoin: miter"/>
   </g>
   <g id="patch_7">
    <path d="M 326.327627 5.220477 
L 308.2974 23.250704 
L 308.2974 48.749296 
L 326.327627 66.779523 
L 351.826219 66.779523 
L 369.856446 48.749296 
L 369.856446 23.250704 
L 351.826219 5.220477 
z
" clip-path="url(#pe8e03c1a39)" style="fill: #aa3377; stroke: #aa3377; stroke-width: 0.1; stroke-linejoin: miter"/>
   </g>
   <g id="patch_8">
    <path d="M 387.866089 5.220477 
L 369.835862 23.250704 
L 369.835862 48.749296 
L 387.866089 66.779523 
L 413.36468 66.779523 
L 431.394907 48.749296 
L 431.394907 23.250704 
L 413.36468 5.220477 
z
" clip-path="url(#pe8e03c1a39)" style="fill: #bbbbbb; stroke: #bbbbbb; stroke-width: 0.1; stroke-linejoin: miter"/>
   </g>
   <g id="text_1">
    <!-- #4477AA -->
    <g style="fill: #ffffff" transform="translate(10.323678 31.6) scale(0.1 -0.1)">
     <defs>
      <path id="NotoSans-Regular-23" d="M 3072 2790 
L 2874 1766 
L 3750 1766 
L 3750 1338 
L 2790 1338 
L 2528 0 
L 2074 0 
L 2336 1338 
L 1421 1338 
L 1171 0 
L 723 0 
L 966 1338 
L 160 1338 
L 160 1766 
L 1050 1766 
L 1254 2790 
L 397 2790 
L 397 3213 
L 1331 3213 
L 1587 4570 
L 2048 4570 
L 1792 3213 
L 2714 3213 
L 2970 4570 
L 3411 4570 
L 3155 3213 
L 3968 3213 
L 3968 2790 
L 3072 2790 
z
M 1504 1766 
L 2419 1766 
L 2618 2790 
L 1702 2790 
L 1504 1766 
z
" transform="scale(0.015625)"/>
      <path id="NotoSans-Regular-34" d="M 3533 1037 
L 2867 1037 
L 2867 0 
L 2323 0 
L 2323 1037 
L 134 1037 
L 134 1517 
L 2285 4595 
L 2867 4595 
L 2867 1542 
L 3533 1542 
L 3533 1037 
z
M 2323 2982 
Q 2323 3315 2336 3548 
Q 2349 3782 2355 3994 
L 2330 3994 
Q 2278 3872 2201 3731 
Q 2125 3590 2054 3494 
L 685 1542 
L 2323 1542 
L 2323 2982 
z
" transform="scale(0.015625)"/>
      <path id="NotoSans-Regular-37" d="M 870 0 
L 2746 4058 
L 282 4058 
L 282 4570 
L 3347 4570 
L 3347 4134 
L 1491 0 
L 870 0 
z
" transform="scale(0.015625)"/>
      <path id="NotoSans-Regular-41" d="M 3488 0 
L 2938 1414 
L 1126 1414 
L 582 0 
L 0 0 
L 1786 4589 
L 2304 4589 
L 4083 0 
L 3488 0 
z
M 2253 3309 
Q 2234 3360 2189 3494 
Q 2144 3629 2102 3773 
Q 2061 3917 2035 3994 
Q 1990 3795 1932 3606 
Q 1875 3418 1837 3309 
L 1318 1926 
L 2765 1926 
L 2253 3309 
z
" transform="scale(0.015625)"/>
     </defs>
     <use xlink:href="#NotoSans-Regular-23"/>
     <use xlink:href="#NotoSans-Regular-34" transform="translate(64.599991 0)"/>
     <use xlink:href="#NotoSans-Regular-34" transform="translate(121.799988 0)"/>
     <use xlink:href="#NotoSans-Regular-37" transform="translate(178.999985 0)"/>
     <use xlink:href="#NotoSans-Regular-37" transform="translate(236.199982 0)"/>
     <use xlink:href="#NotoSans-Regular-41" transform="translate(293.399979 0)"/>
     <use xlink:href="#NotoSans-Regular-41" transform="translate(357.299973 0)"/>
    </g>
   </g>
   <g id="text_2">
    <!-- blue -->
    <g style="fill: #ffffff" transform="translate(19.568365 45.233857) scale(0.115 -0.115)">
     <defs>
      <path id="NotoSans-Regular-62" d="M 1107 3680 
Q 1107 3462 1097 3273 
Q 1088 3085 1075 2976 
L 1107 2976 
Q 1254 3194 1510 3341 
Q 1766 3488 2170 3488 
Q 2810 3488 3197 3043 
Q 3584 2598 3584 1715 
Q 3584 832 3193 384 
Q 2803 -64 2170 -64 
Q 1766 -64 1510 83 
Q 1254 230 1107 435 
L 1062 435 
L 947 0 
L 544 0 
L 544 4864 
L 1107 4864 
L 1107 3680 
z
M 2074 3021 
Q 1530 3021 1318 2707 
Q 1107 2394 1107 1734 
L 1107 1709 
Q 1107 1075 1315 739 
Q 1523 403 2086 403 
Q 2547 403 2774 742 
Q 3002 1082 3002 1722 
Q 3002 3021 2074 3021 
z
" transform="scale(0.015625)"/>
      <path id="NotoSans-Regular-6c" d="M 1107 0 
L 544 0 
L 544 4864 
L 1107 4864 
L 1107 0 
z
" transform="scale(0.015625)"/>
      <path id="NotoSans-Regular-75" d="M 3411 3430 
L 3411 0 
L 2950 0 
L 2867 454 
L 2842 454 
Q 2675 186 2380 61 
Q 2086 -64 1754 -64 
Q 1133 -64 819 233 
Q 506 531 506 1184 
L 506 3430 
L 1075 3430 
L 1075 1222 
Q 1075 403 1837 403 
Q 2406 403 2627 723 
Q 2848 1043 2848 1645 
L 2848 3430 
L 3411 3430 
z
" transform="scale(0.015625)"/>
      <path id="NotoSans-Regular-65" d="M 1869 3494 
Q 2310 3494 2627 3302 
Q 2944 3110 3113 2761 
Q 3283 2413 3283 1946 
L 3283 1606 
L 934 1606 
Q 947 1024 1232 720 
Q 1517 416 2029 416 
Q 2355 416 2608 477 
Q 2861 538 3130 653 
L 3130 160 
Q 2867 45 2611 -9 
Q 2355 -64 2003 -64 
Q 1517 -64 1142 134 
Q 768 333 560 726 
Q 352 1120 352 1690 
Q 352 2253 541 2656 
Q 730 3059 1072 3276 
Q 1414 3494 1869 3494 
z
M 1862 3034 
Q 1459 3034 1225 2774 
Q 992 2515 947 2054 
L 2694 2054 
Q 2688 2490 2489 2762 
Q 2291 3034 1862 3034 
z
" transform="scale(0.015625)"/>
     </defs>
     <use xlink:href="#NotoSans-Regular-62"/>
     <use xlink:href="#NotoSans-Regular-6c" transform="translate(61.499985 0)"/>
     <use xlink:href="#NotoSans-Regular-75" transform="translate(87.299973 0)"/>
     <use xlink:href="#NotoSans-Regular-65" transform="translate(149.09996 0)"/>
    </g>
   </g>
   <g id="text_3">
    <!-- #EE6677 -->
    <g transform="translate(72.693389 31.6) scale(0.1 -0.1)">
     <defs>
      <path id="NotoSans-Regular-45" d="M 3174 0 
L 621 0 
L 621 4570 
L 3174 4570 
L 3174 4064 
L 1197 4064 
L 1197 2637 
L 3059 2637 
L 3059 2138 
L 1197 2138 
L 1197 506 
L 3174 506 
L 3174 0 
z
" transform="scale(0.015625)"/>
      <path id="NotoSans-Regular-36" d="M 352 1952 
Q 352 2445 438 2921 
Q 525 3398 752 3785 
Q 979 4173 1388 4403 
Q 1798 4634 2445 4634 
Q 2579 4634 2742 4621 
Q 2906 4608 3008 4576 
L 3008 4096 
Q 2893 4134 2749 4153 
Q 2605 4173 2458 4173 
Q 2016 4173 1721 4025 
Q 1427 3878 1257 3622 
Q 1088 3366 1011 3033 
Q 934 2701 915 2323 
L 954 2323 
Q 1101 2547 1363 2704 
Q 1626 2861 2035 2861 
Q 2630 2861 2995 2499 
Q 3360 2138 3360 1472 
Q 3360 755 2966 345 
Q 2573 -64 1907 -64 
Q 1472 -64 1120 153 
Q 768 371 560 819 
Q 352 1267 352 1952 
z
M 1901 410 
Q 2304 410 2553 669 
Q 2803 928 2803 1472 
Q 2803 1907 2582 2163 
Q 2362 2419 1920 2419 
Q 1619 2419 1395 2294 
Q 1171 2170 1046 1978 
Q 922 1786 922 1581 
Q 922 1306 1030 1034 
Q 1139 762 1356 586 
Q 1574 410 1901 410 
z
" transform="scale(0.015625)"/>
     </defs>
     <use xlink:href="#NotoSans-Regular-23"/>
     <use xlink:href="#NotoSans-Regular-45" transform="translate(64.599991 0)"/>
     <use xlink:href="#NotoSans-Regular-45" transform="translate(120.199982 0)"/>
     <use xlink:href="#NotoSans-Regular-36" transform="translate(175.799973 0)"/>
     <use xlink:href="#NotoSans-Regular-36" transform="translate(232.999969 0)"/>
     <use xlink:href="#NotoSans-Regular-37" transform="translate(290.199966 0)"/>
     <use xlink:href="#NotoSans-Regular-37" transform="translate(347.399963 0)"/>
    </g>
   </g>
   <g id="text_4">
    <!-- red -->
    <g transform="translate(83.569893 45.233857) scale(0.1175 -0.1175)">
     <defs>
      <path id="NotoSans-Regular-72" d="M 2144 3494 
Q 2240 3494 2352 3484 
Q 2464 3475 2547 3456 
L 2477 2938 
Q 2394 2957 2294 2969 
Q 2195 2982 2106 2982 
Q 1843 2982 1612 2838 
Q 1382 2694 1244 2435 
Q 1107 2176 1107 1830 
L 1107 0 
L 544 0 
L 544 3430 
L 1005 3430 
L 1069 2803 
L 1094 2803 
Q 1261 3085 1523 3289 
Q 1786 3494 2144 3494 
z
" transform="scale(0.015625)"/>
      <path id="NotoSans-Regular-64" d="M 1760 -64 
Q 1120 -64 736 381 
Q 352 826 352 1709 
Q 352 2592 739 3043 
Q 1126 3494 1766 3494 
Q 2163 3494 2416 3347 
Q 2669 3200 2829 2989 
L 2867 2989 
Q 2861 3072 2845 3235 
Q 2829 3398 2829 3494 
L 2829 4864 
L 3392 4864 
L 3392 0 
L 2938 0 
L 2854 461 
L 2829 461 
Q 2675 243 2419 89 
Q 2163 -64 1760 -64 
z
M 1850 403 
Q 2394 403 2614 700 
Q 2835 998 2835 1600 
L 2835 1702 
Q 2835 2342 2624 2684 
Q 2413 3027 1843 3027 
Q 1389 3027 1161 2665 
Q 934 2304 934 1696 
Q 934 1082 1161 742 
Q 1389 403 1850 403 
z
" transform="scale(0.015625)"/>
     </defs>
     <use xlink:href="#NotoSans-Regular-72"/>
     <use xlink:href="#NotoSans-Regular-65" transform="translate(41.299988 0)"/>
     <use xlink:href="#NotoSans-Regular-64" transform="translate(97.699982 0)"/>
    </g>
   </g>
   <g id="text_5">
    <!-- #228833 -->
    <g transform="translate(134.070913 31.6) scale(0.1 -0.1)">
     <defs>
      <path id="NotoSans-Regular-32" d="M 3328 0 
L 307 0 
L 307 467 
L 1504 1677 
Q 1850 2022 2086 2291 
Q 2323 2560 2444 2819 
Q 2566 3078 2566 3386 
Q 2566 3763 2342 3958 
Q 2118 4154 1760 4154 
Q 1427 4154 1174 4038 
Q 922 3923 659 3718 
L 358 4096 
Q 627 4320 976 4477 
Q 1325 4634 1760 4634 
Q 2400 4634 2771 4310 
Q 3142 3987 3142 3418 
Q 3142 3059 2995 2745 
Q 2848 2432 2585 2128 
Q 2323 1824 1971 1478 
L 1018 538 
L 1018 512 
L 3328 512 
L 3328 0 
z
" transform="scale(0.015625)"/>
      <path id="NotoSans-Regular-38" d="M 1824 4634 
Q 2426 4634 2810 4352 
Q 3194 4070 3194 3539 
Q 3194 3264 3075 3059 
Q 2957 2854 2758 2697 
Q 2560 2541 2323 2419 
Q 2605 2285 2835 2115 
Q 3066 1946 3203 1722 
Q 3341 1498 3341 1184 
Q 3341 608 2934 272 
Q 2528 -64 1843 -64 
Q 1107 -64 710 259 
Q 314 582 314 1165 
Q 314 1478 445 1708 
Q 576 1939 793 2105 
Q 1011 2272 1261 2387 
Q 928 2579 694 2851 
Q 461 3123 461 3546 
Q 461 3898 640 4138 
Q 819 4378 1126 4506 
Q 1434 4634 1824 4634 
z
M 1818 4179 
Q 1466 4179 1238 4009 
Q 1011 3840 1011 3520 
Q 1011 3283 1123 3123 
Q 1235 2963 1427 2851 
Q 1619 2739 1850 2637 
Q 2182 2778 2409 2976 
Q 2637 3174 2637 3520 
Q 2637 3840 2413 4009 
Q 2189 4179 1818 4179 
z
M 864 1158 
Q 864 826 1101 605 
Q 1338 384 1830 384 
Q 2298 384 2544 605 
Q 2790 826 2790 1178 
Q 2790 1510 2528 1731 
Q 2266 1952 1830 2118 
L 1728 2157 
Q 1306 1978 1085 1744 
Q 864 1510 864 1158 
z
" transform="scale(0.015625)"/>
      <path id="NotoSans-Regular-33" d="M 3155 3501 
Q 3155 3040 2899 2768 
Q 2643 2496 2208 2406 
L 2208 2381 
Q 2758 2317 3027 2035 
Q 3296 1754 3296 1299 
Q 3296 902 3110 592 
Q 2925 282 2537 109 
Q 2150 -64 1542 -64 
Q 1184 -64 877 -9 
Q 570 45 288 186 
L 288 710 
Q 576 570 909 490 
Q 1242 410 1549 410 
Q 2163 410 2435 650 
Q 2707 890 2707 1312 
Q 2707 1741 2371 1929 
Q 2035 2118 1427 2118 
L 986 2118 
L 986 2598 
L 1434 2598 
Q 1997 2598 2288 2835 
Q 2579 3072 2579 3462 
Q 2579 3795 2355 3977 
Q 2131 4160 1747 4160 
Q 1376 4160 1113 4051 
Q 851 3942 595 3776 
L 314 4160 
Q 557 4352 918 4493 
Q 1280 4634 1741 4634 
Q 2458 4634 2806 4314 
Q 3155 3994 3155 3501 
z
" transform="scale(0.015625)"/>
     </defs>
     <use xlink:href="#NotoSans-Regular-23"/>
     <use xlink:href="#NotoSans-Regular-32" transform="translate(64.599991 0)"/>
     <use xlink:href="#NotoSans-Regular-32" transform="translate(121.799988 0)"/>
     <use xlink:href="#NotoSans-Regular-38" transform="translate(178.999985 0)"/>
     <use xlink:href="#NotoSans-Regular-38" transform="translate(236.199982 0)"/>
     <use xlink:href="#NotoSans-Regular-33" transform="translate(293.399979 0)"/>
     <use xlink:href="#NotoSans-Regular-33" transform="translate(350.599976 0)"/>
    </g>
   </g>
   <g id="text_6">
    <!-- green -->
    <g transform="translate(138.857437 45.233857) scale(0.1125 -0.1125)">
     <defs>
      <path id="NotoSans-Regular-67" d="M 1760 3494 
Q 2099 3494 2371 3366 
Q 2643 3238 2835 2976 
L 2867 2976 
L 2944 3430 
L 3392 3430 
L 3392 -58 
Q 3392 -794 3017 -1165 
Q 2643 -1536 1856 -1536 
Q 1101 -1536 621 -1318 
L 621 -800 
Q 1126 -1069 1888 -1069 
Q 2330 -1069 2582 -809 
Q 2835 -550 2835 -102 
L 2835 32 
Q 2835 109 2841 253 
Q 2848 397 2854 454 
L 2829 454 
Q 2483 -64 1766 -64 
Q 1101 -64 726 403 
Q 352 870 352 1709 
Q 352 2528 726 3011 
Q 1101 3494 1760 3494 
z
M 1837 3021 
Q 1408 3021 1171 2678 
Q 934 2336 934 1702 
Q 934 1069 1168 733 
Q 1402 397 1850 397 
Q 2368 397 2605 675 
Q 2842 954 2842 1574 
L 2842 1709 
Q 2842 2413 2598 2717 
Q 2355 3021 1837 3021 
z
" transform="scale(0.015625)"/>
      <path id="NotoSans-Regular-6e" d="M 2195 3494 
Q 2810 3494 3123 3196 
Q 3437 2899 3437 2234 
L 3437 0 
L 2880 0 
L 2880 2195 
Q 2880 3021 2112 3021 
Q 1542 3021 1324 2701 
Q 1107 2381 1107 1779 
L 1107 0 
L 544 0 
L 544 3430 
L 998 3430 
L 1082 2963 
L 1114 2963 
Q 1280 3232 1574 3363 
Q 1869 3494 2195 3494 
z
" transform="scale(0.015625)"/>
     </defs>
     <use xlink:href="#NotoSans-Regular-67"/>
     <use xlink:href="#NotoSans-Regular-72" transform="translate(61.499985 0)"/>
     <use xlink:href="#NotoSans-Regular-65" transform="translate(102.799973 0)"/>
     <use xlink:href="#NotoSans-Regular-65" transform="translate(159.199966 0)"/>
     <use xlink:href="#NotoSans-Regular-6e" transform="translate(215.59996 0)"/>
    </g>
   </g>
   <g id="text_7">
    <!-- #CCBB44 -->
    <g transform="translate(194.229688 31.6) scale(0.1 -0.1)">
     <defs>
      <path id="NotoSans-Regular-43" d="M 2579 4128 
Q 1843 4128 1420 3635 
Q 998 3142 998 2285 
Q 998 1434 1392 938 
Q 1786 442 2573 442 
Q 2874 442 3142 493 
Q 3411 544 3667 621 
L 3667 122 
Q 3411 26 3139 -19 
Q 2867 -64 2490 -64 
Q 1792 -64 1325 224 
Q 858 512 624 1043 
Q 390 1574 390 2291 
Q 390 2982 643 3510 
Q 896 4038 1389 4336 
Q 1882 4634 2586 4634 
Q 3309 4634 3846 4365 
L 3616 3878 
Q 3405 3974 3145 4051 
Q 2886 4128 2579 4128 
z
" transform="scale(0.015625)"/>
      <path id="NotoSans-Regular-42" d="M 1926 4570 
Q 2784 4570 3222 4317 
Q 3661 4064 3661 3437 
Q 3661 3034 3437 2768 
Q 3213 2502 2790 2426 
L 2790 2394 
Q 3078 2349 3312 2227 
Q 3546 2106 3680 1882 
Q 3814 1658 3814 1299 
Q 3814 678 3388 339 
Q 2963 0 2227 0 
L 621 0 
L 621 4570 
L 1926 4570 
z
M 2042 2624 
Q 2630 2624 2848 2813 
Q 3066 3002 3066 3373 
Q 3066 3750 2800 3913 
Q 2534 4077 1952 4077 
L 1197 4077 
L 1197 2624 
L 2042 2624 
z
M 1197 2144 
L 1197 486 
L 2118 486 
Q 2726 486 2963 723 
Q 3200 960 3200 1344 
Q 3200 1702 2953 1923 
Q 2707 2144 2074 2144 
L 1197 2144 
z
" transform="scale(0.015625)"/>
     </defs>
     <use xlink:href="#NotoSans-Regular-23"/>
     <use xlink:href="#NotoSans-Regular-43" transform="translate(64.599991 0)"/>
     <use xlink:href="#NotoSans-Regular-43" transform="translate(127.799988 0)"/>
     <use xlink:href="#NotoSans-Regular-42" transform="translate(190.999985 0)"/>
     <use xlink:href="#NotoSans-Regular-42" transform="translate(255.999969 0)"/>
     <use xlink:href="#NotoSans-Regular-34" transform="translate(320.999954 0)"/>
     <use xlink:href="#NotoSans-Regular-34" transform="translate(378.199951 0)"/>
    </g>
   </g>
   <g id="text_8">
    <!-- yellow -->
    <g transform="translate(199.604844 45.233857) scale(0.11 -0.11)">
     <defs>
      <path id="NotoSans-Regular-79" d="M 6 3430 
L 608 3430 
L 1350 1478 
Q 1446 1222 1523 988 
Q 1600 755 1638 544 
L 1664 544 
Q 1702 704 1785 963 
Q 1869 1222 1958 1485 
L 2656 3430 
L 3264 3430 
L 1786 -474 
Q 1606 -960 1321 -1248 
Q 1037 -1536 538 -1536 
Q 384 -1536 269 -1520 
Q 154 -1504 70 -1485 
L 70 -1037 
Q 141 -1050 240 -1062 
Q 339 -1075 448 -1075 
Q 742 -1075 924 -908 
Q 1107 -742 1210 -467 
L 1389 -13 
L 6 3430 
z
" transform="scale(0.015625)"/>
      <path id="NotoSans-Regular-6f" d="M 3526 1722 
Q 3526 870 3094 403 
Q 2662 -64 1926 -64 
Q 1472 -64 1117 144 
Q 762 352 557 752 
Q 352 1152 352 1722 
Q 352 2573 781 3033 
Q 1210 3494 1946 3494 
Q 2413 3494 2768 3286 
Q 3123 3078 3324 2684 
Q 3526 2291 3526 1722 
z
M 934 1722 
Q 934 1114 1174 758 
Q 1414 403 1939 403 
Q 2458 403 2701 758 
Q 2944 1114 2944 1722 
Q 2944 2330 2701 2675 
Q 2458 3021 1933 3021 
Q 1408 3021 1171 2675 
Q 934 2330 934 1722 
z
" transform="scale(0.015625)"/>
      <path id="NotoSans-Regular-77" d="M 2758 1939 
Q 2675 2202 2614 2454 
Q 2554 2707 2522 2848 
L 2496 2848 
Q 2470 2707 2412 2454 
Q 2355 2202 2266 1933 
L 1651 6 
L 1011 6 
L 70 3437 
L 653 3437 
L 1126 1606 
Q 1197 1331 1261 1049 
Q 1325 768 1350 582 
L 1376 582 
Q 1402 691 1437 851 
Q 1472 1011 1517 1187 
Q 1562 1363 1606 1504 
L 2214 3437 
L 2829 3437 
L 3418 1504 
Q 3488 1286 3555 1030 
Q 3622 774 3648 589 
L 3674 589 
Q 3693 749 3760 1030 
Q 3827 1312 3904 1606 
L 4384 3437 
L 4960 3437 
L 4006 6 
L 3347 6 
L 2758 1939 
z
" transform="scale(0.015625)"/>
     </defs>
     <use xlink:href="#NotoSans-Regular-79"/>
     <use xlink:href="#NotoSans-Regular-65" transform="translate(50.999985 0)"/>
     <use xlink:href="#NotoSans-Regular-6c" transform="translate(107.399979 0)"/>
     <use xlink:href="#NotoSans-Regular-6c" transform="translate(133.199966 0)"/>
     <use xlink:href="#NotoSans-Regular-6f" transform="translate(158.999954 0)"/>
     <use xlink:href="#NotoSans-Regular-77" transform="translate(219.499939 0)"/>
    </g>
   </g>
   <g id="text_9">
    <!-- #66CCEE -->
    <g transform="translate(256.708774 31.6) scale(0.1 -0.1)">
     <use xlink:href="#NotoSans-Regular-23"/>
     <use xlink:href="#NotoSans-Regular-36" transform="translate(64.599991 0)"/>
     <use xlink:href="#NotoSans-Regular-36" transform="translate(121.799988 0)"/>
     <use xlink:href="#NotoSans-Regular-43" transform="translate(178.999985 0)"/>
     <use xlink:href="#NotoSans-Regular-43" transform="translate(242.199982 0)"/>
     <use xlink:href="#NotoSans-Regular-45" transform="translate(305.399979 0)"/>
     <use xlink:href="#NotoSans-Regular-45" transform="translate(360.999969 0)"/>
    </g>
   </g>
   <g id="text_10">
    <!-- cyan -->
    <g transform="translate(265.067251 45.233857) scale(0.115 -0.115)">
     <defs>
      <path id="NotoSans-Regular-63" d="M 1920 -64 
Q 1466 -64 1110 121 
Q 755 307 553 697 
Q 352 1088 352 1696 
Q 352 2330 563 2726 
Q 774 3123 1136 3308 
Q 1498 3494 1958 3494 
Q 2221 3494 2464 3440 
Q 2707 3386 2861 3309 
L 2688 2842 
Q 2534 2899 2329 2950 
Q 2125 3002 1946 3002 
Q 934 3002 934 1702 
Q 934 1082 1180 752 
Q 1427 422 1914 422 
Q 2195 422 2409 480 
Q 2624 538 2803 621 
L 2803 122 
Q 2630 32 2422 -16 
Q 2214 -64 1920 -64 
z
" transform="scale(0.015625)"/>
      <path id="NotoSans-Regular-61" d="M 1843 3488 
Q 2470 3488 2771 3213 
Q 3072 2938 3072 2336 
L 3072 0 
L 2662 0 
L 2554 486 
L 2528 486 
Q 2304 205 2057 70 
Q 1811 -64 1376 -64 
Q 909 -64 601 182 
Q 294 429 294 954 
Q 294 1466 697 1744 
Q 1101 2022 1939 2048 
L 2522 2067 
L 2522 2272 
Q 2522 2701 2336 2867 
Q 2150 3034 1811 3034 
Q 1542 3034 1299 2954 
Q 1056 2874 845 2771 
L 672 3194 
Q 896 3315 1203 3401 
Q 1510 3488 1843 3488 
z
M 2010 1658 
Q 1370 1632 1123 1453 
Q 877 1274 877 947 
Q 877 659 1053 524 
Q 1229 390 1504 390 
Q 1939 390 2227 630 
Q 2515 870 2515 1370 
L 2515 1677 
L 2010 1658 
z
" transform="scale(0.015625)"/>
     </defs>
     <use xlink:href="#NotoSans-Regular-63"/>
     <use xlink:href="#NotoSans-Regular-79" transform="translate(47.999985 0)"/>
     <use xlink:href="#NotoSans-Regular-61" transform="translate(98.999969 0)"/>
     <use xlink:href="#NotoSans-Regular-6e" transform="translate(155.09996 0)"/>
    </g>
   </g>
   <g id="text_11">
    <!-- #AA3377 -->
    <g transform="translate(318.015986 31.6) scale(0.1 -0.1)">
     <use xlink:href="#NotoSans-Regular-23"/>
     <use xlink:href="#NotoSans-Regular-41" transform="translate(64.599991 0)"/>
     <use xlink:href="#NotoSans-Regular-41" transform="translate(128.499985 0)"/>
     <use xlink:href="#NotoSans-Regular-33" transform="translate(192.399979 0)"/>
     <use xlink:href="#NotoSans-Regular-33" transform="translate(249.599976 0)"/>
     <use xlink:href="#NotoSans-Regular-37" transform="translate(306.799973 0)"/>
     <use xlink:href="#NotoSans-Regular-37" transform="translate(363.999969 0)"/>
    </g>
   </g>
   <g id="text_12">
    <!-- purple -->
    <g transform="translate(322.120595 45.233857) scale(0.11 -0.11)">
     <defs>
      <path id="NotoSans-Regular-70" d="M 2176 3494 
Q 2810 3494 3197 3052 
Q 3584 2611 3584 1722 
Q 3584 845 3197 390 
Q 2810 -64 2170 -64 
Q 1773 -64 1513 86 
Q 1254 237 1107 435 
L 1069 435 
Q 1082 326 1094 160 
Q 1107 -6 1107 -128 
L 1107 -1536 
L 544 -1536 
L 544 3430 
L 1005 3430 
L 1082 2963 
L 1107 2963 
Q 1261 3187 1510 3340 
Q 1760 3494 2176 3494 
z
M 2074 3021 
Q 1549 3021 1334 2726 
Q 1120 2432 1107 1830 
L 1107 1722 
Q 1107 1088 1315 745 
Q 1523 403 2086 403 
Q 2400 403 2601 576 
Q 2803 749 2902 1046 
Q 3002 1344 3002 1728 
Q 3002 2317 2774 2669 
Q 2547 3021 2074 3021 
z
" transform="scale(0.015625)"/>
     </defs>
     <use xlink:href="#NotoSans-Regular-70"/>
     <use xlink:href="#NotoSans-Regular-75" transform="translate(61.499985 0)"/>
     <use xlink:href="#NotoSans-Regular-72" transform="translate(123.299973 0)"/>
     <use xlink:href="#NotoSans-Regular-70" transform="translate(164.59996 0)"/>
     <use xlink:href="#NotoSans-Regular-6c" transform="translate(226.099945 0)"/>
     <use xlink:href="#NotoSans-Regular-65" transform="translate(251.899933 0)"/>
    </g>
   </g>
   <g id="text_13">
    <!-- #BBBBBB -->
    <g transform="translate(377.885697 31.6) scale(0.1 -0.1)">
     <use xlink:href="#NotoSans-Regular-23"/>
     <use xlink:href="#NotoSans-Regular-42" transform="translate(64.599991 0)"/>
     <use xlink:href="#NotoSans-Regular-42" transform="translate(129.599976 0)"/>
     <use xlink:href="#NotoSans-Regular-42" transform="translate(194.59996 0)"/>
     <use xlink:href="#NotoSans-Regular-42" transform="translate(259.599945 0)"/>
     <use xlink:href="#NotoSans-Regular-42" transform="translate(324.59993 0)"/>
     <use xlink:href="#NotoSans-Regular-42" transform="translate(389.599915 0)"/>
    </g>
   </g>
   <g id="text_14">
    <!-- grey -->
    <g transform="translate(388.528705 45.233857) scale(0.115 -0.115)">
     <use xlink:href="#NotoSans-Regular-67"/>
     <use xlink:href="#NotoSans-Regular-72" transform="translate(61.499985 0)"/>
     <use xlink:href="#NotoSans-Regular-65" transform="translate(102.799973 0)"/>
     <use xlink:href="#NotoSans-Regular-79" transform="translate(159.199966 0)"/>
    </g>
   </g>
  </g>
 </g>
 <defs>
  <clipPath id="pe8e03c1a39">
   <rect x="0" y="5.107692" width="432" height="61.784615"/>
  </clipPath>
 </defs>
</svg>
