<?xml version="1.0" encoding="UTF-8" standalone="no"?>
<svg
   xmlns:dc="http://purl.org/dc/elements/1.1/"
   xmlns:cc="http://creativecommons.org/ns#"
   xmlns:rdf="http://www.w3.org/1999/02/22-rdf-syntax-ns#"
   xmlns:svg="http://www.w3.org/2000/svg"
   xmlns="http://www.w3.org/2000/svg"
   xmlns:sodipodi="http://sodipodi.sourceforge.net/DTD/sodipodi-0.dtd"
   xmlns:inkscape="http://www.inkscape.org/namespaces/inkscape"
   version="1.1"
   id="mdi-language-python"
   width="24"
   height="24"
   viewBox="0 0 24 24"
   sodipodi:docname="language-python.svg"
   inkscape:version="1.0.2 (e86c870879, 2021-01-15)">
  <metadata
     id="metadata9">
    <rdf:RDF>
      <cc:Work
         rdf:about="">
        <dc:format>image/svg+xml</dc:format>
        <dc:type
           rdf:resource="http://purl.org/dc/dcmitype/StillImage" />
      </cc:Work>
    </rdf:RDF>
  </metadata>
  <defs
     id="defs7" />
  <sodipodi:namedview
     pagecolor="#ffffff"
     bordercolor="#666666"
     borderopacity="1"
     objecttolerance="10"
     gridtolerance="10"
     guidetolerance="10"
     inkscape:pageopacity="0"
     inkscape:pageshadow="2"
     inkscape:window-width="1920"
     inkscape:window-height="1043"
     id="namedview5"
     showgrid="false"
     inkscape:zoom="10.916667"
     inkscape:cx="12.641221"
     inkscape:cy="12"
     inkscape:window-x="1280"
     inkscape:window-y="0"
     inkscape:window-maximized="1"
     inkscape:current-layer="mdi-language-python" />
  <path
     d="M19.14,7.5A2.86,2.86 0 0,1 22,10.36V14.14A2.86,2.86 0 0,1 19.14,17H12C12,17.39 12.32,17.96 12.71,17.96H17V19.64A2.86,2.86 0 0,1 14.14,22.5H9.86A2.86,2.86 0 0,1 7,19.64V15.89C7,14.31 8.28,13.04 9.86,13.04H15.11C16.69,13.04 17.96,11.76 17.96,10.18V7.5H19.14M14.86,19.29C14.46,19.29 14.14,19.59 14.14,20.18C14.14,20.77 14.46,20.89 14.86,20.89A0.71,0.71 0 0,0 15.57,20.18C15.57,19.59 15.25,19.29 14.86,19.29M4.86,17.5C3.28,17.5 2,16.22 2,14.64V10.86C2,9.28 3.28,8 4.86,8H12C12,7.61 11.68,7.04 11.29,7.04H7V5.36C7,3.78 8.28,2.5 9.86,2.5H14.14C15.72,2.5 17,3.78 17,5.36V9.11C17,10.69 15.72,11.96 14.14,11.96H8.89C7.31,11.96 6.04,13.24 6.04,14.82V17.5H4.86M9.14,5.71C9.54,5.71 9.86,5.41 9.86,4.82C9.86,4.23 9.54,4.11 9.14,4.11C8.75,4.11 8.43,4.23 8.43,4.82C8.43,5.41 8.75,5.71 9.14,5.71Z"
     id="path2"
     style="fill:#86dde3;fill-opacity:1" />
</svg>
